<svg xmlns="http://www.w3.org/2000/svg" width="350" height="195" viewBox="0 0 350 195" role="img" aria-label="Linguagens mais usadas">
  <style>
    .title { font: 600 18px 'Segoe UI', Ubuntu, sans-serif; fill: #70a5fd; }
    .label { font: 400 12px 'Segoe UI', Ubuntu, sans-serif; fill: #38bdae; }
  </style>
  <rect width="350" height="195" rx="6" fill="#1a1b27"/>
  <text x="25" y="35" class="title">Linguagens mais usadas</text>
  <clipPath id="round"><rect x="25" y="55" width="300" height="8" rx="4"/></clipPath>
  <g clip-path="url(#round)">
    <rect x="25" y="55" width="300" height="8" fill="#565f89"/>
    <rect x="25.00" y="55" width="135.91" height="8" fill="#3572A5"/><rect x="160.91" y="55" width="70.13" height="8" fill="#e34c26"/><rect x="231.04" y="55" width="67.41" height="8" fill="#DA5B0B"/><rect x="298.45" y="55" width="10.20" height="8" fill="#ff5a03"/><rect x="308.65" y="55" width="8.19" height="8" fill="#663399"/><rect x="316.84" y="55" width="6.26" height="8" fill="#3178c6"/><rect x="323.10" y="55" width="1.08" height="8" fill="#f1e05a"/><rect x="324.18" y="55" width="0.55" height="8" fill="#012456"/>
  </g>
  <circle cx="30" cy="91" r="5" fill="#3572A5"/><text x="43" y="95" class="label">Python 45.3%</text><circle cx="190" cy="91" r="5" fill="#e34c26"/><text x="203" y="95" class="label">HTML 23.4%</text><circle cx="30" cy="113" r="5" fill="#DA5B0B"/><text x="43" y="117" class="label">Jupyter Notebook 22.5%</text><circle cx="190" cy="113" r="5" fill="#ff5a03"/><text x="203" y="117" class="label">Astro 3.4%</text><circle cx="30" cy="135" r="5" fill="#663399"/><text x="43" y="139" class="label">CSS 2.7%</text><circle cx="190" cy="135" r="5" fill="#3178c6"/><text x="203" y="139" class="label">TypeScript 2.1%</text><circle cx="30" cy="157" r="5" fill="#f1e05a"/><text x="43" y="161" class="label">JavaScript 0.4%</text><circle cx="190" cy="157" r="5" fill="#012456"/><text x="203" y="161" class="label">PowerShell 0.2%</text>
</svg>